<?xml version="1.0" encoding="utf-8"?>
<!-- Generator: Adobe Illustrator 18.0.0, SVG Export Plug-In . SVG Version: 6.00 Build 0)  -->
<!DOCTYPE svg PUBLIC "-//W3C//DTD SVG 1.1//EN" "http://www.w3.org/Graphics/SVG/1.1/DTD/svg11.dtd">
<svg version="1.1" id="Layer_1" xmlns="http://www.w3.org/2000/svg" xmlns:xlink="http://www.w3.org/1999/xlink" x="0px" y="0px"
	 viewBox="0 0 396 779" enable-background="new 0 0 396 779" xml:space="preserve">
<g>
	<g>
		<g>
			<path fill="#F5F2F2" d="M116.1,37.4L-76.1,229.6c-1.2,1.2-1.2,3.2,0,4.4l0,0c1.2,1.2,3.2,1.2,4.4,0L120.4,41.7
				c1.2-1.2,1.2-3.2,0-4.4l0,0C119.2,36.2,117.3,36.2,116.1,37.4z"/>
		</g>
		<g>
			<path fill="#F5F2F2" d="M96.8,216.6l-66.3,66.3c-0.4,0.4-0.4,1.1,0,1.5l0,0c0.4,0.4,1.1,0.4,1.5,0l66.3-66.3
				c0.4-0.4,0.4-1.1,0-1.5l0,0C97.9,216.1,97.3,216.1,96.8,216.6z"/>
		</g>
		<g>
			<path fill="#F5F2F2" d="M61.1,310.9L31,341c-0.4,0.4-0.4,1.1,0,1.5l0,0c0.4,0.4,1.1,0.4,1.5,0l30.1-30.1c0.4-0.4,0.4-1.1,0-1.5h0
				C62.2,310.4,61.6,310.4,61.1,310.9z"/>
		</g>
		<g>
			<path fill="#F5F2F2" d="M302.9,54.3l-30,30c-0.4,0.4-0.4,1.1,0,1.5h0c0.4,0.4,1.1,0.4,1.5,0l30-30c0.4-0.4,0.4-1.1,0-1.5l0,0
				C304,53.9,303.4,53.9,302.9,54.3z"/>
		</g>
		<g>
			<path fill="#F5F2F2" d="M199.6,425.9l-30,30c-0.4,0.4-0.4,1.1,0,1.5h0c0.4,0.4,1.1,0.4,1.5,0l30-30c0.4-0.4,0.4-1.1,0-1.5l0,0
				C200.7,425.5,200,425.5,199.6,425.9z"/>
		</g>
		<g>
			<path fill="#F5F2F2" d="M73.3,160.6l14.3-14.3v9.1l-9.8,9.8c-0.6,0.6-1.4,0.9-2.3,0.9s-1.7-0.3-2.3-0.9
				C72.1,163.9,72.1,161.8,73.3,160.6z"/>
			<polygon fill="#F5F2F2" points="126,117 103,140 103,130.9 116.9,117 			"/>
			<path fill="#F5F2F2" d="M231.2,11.8l-89.8,89.8h-9.1l94.4-94.4c0.6-0.6,1.4-0.9,2.3-0.9s1.6,0.3,2.3,0.9
				C232.4,8.6,232.4,10.6,231.2,11.8z"/>
		</g>
		<g>
			<path fill="#F5F2F2" d="M236,548.3l14.3-14.3v9.1l-9.8,9.8c-0.6,0.6-1.4,0.9-2.3,0.9s-1.7-0.3-2.3-0.9
				C234.7,551.6,234.7,549.5,236,548.3z"/>
			<polygon fill="#F5F2F2" points="288.7,504.7 265.6,527.7 265.6,518.6 279.6,504.7 			"/>
			<path fill="#F5F2F2" d="M393.8,399.5L304,489.3h-9.1l94.4-94.4c0.6-0.6,1.4-0.9,2.3-0.9s1.6,0.3,2.3,0.9
				C395.1,396.2,395.1,398.3,393.8,399.5z"/>
		</g>
		<g>
			<path fill="#F5F2F2" d="M380.3,263.3L269,374.5c-0.9,0.9-0.9,2.4,0,3.3l0,0c0.9,0.9,2.4,0.9,3.3,0l111.2-111.2
				c0.9-0.9,0.9-2.4,0-3.3l0,0C382.7,262.4,381.2,262.4,380.3,263.3z"/>
		</g>
		<g>
			<path fill="#F5F2F2" d="M144.9,297.7L-23.3,465.9c-0.7,0.7-0.7,1.7,0,2.4l0,0c0.7,0.7,1.7,0.7,2.4,0l168.2-168.2
				c0.7-0.7,0.7-1.7,0-2.4l0,0C146.7,297.1,145.6,297.1,144.9,297.7z"/>
		</g>
		<g>
			<path fill="#F5F2F2" d="M436.2,67.2L268,235.4c-0.7,0.7-0.7,1.7,0,2.4l0,0c0.7,0.7,1.7,0.7,2.4,0L438.6,69.6
				c0.7-0.7,0.7-1.7,0-2.4l0,0C438,66.6,436.9,66.6,436.2,67.2z"/>
		</g>
		<g>
			<path fill="#F5F2F2" d="M59.6,22.2L19.6,62.1c-0.9,0.9-0.9,2.3,0,3.1l0,0c0.9,0.9,2.3,0.9,3.1,0l39.9-39.9c0.9-0.9,0.9-2.3,0-3.1
				l0,0C61.9,21.3,60.4,21.3,59.6,22.2z"/>
		</g>
		<g>
			<path fill="#F5F2F2" d="M410.4,7.5l-71.6,71.6c-1.6,1.6-1.6,4.1,0,5.6l0,0c1.6,1.6,4.1,1.6,5.6,0L416,13.2c1.6-1.6,1.6-4.1,0-5.6
				l0,0C414.5,6,412,6,410.4,7.5z"/>
		</g>
		<g>
			<path fill="#F5F2F2" d="M220,79.9l-18,18c-0.8,0.8-0.8,2,0,2.8l0,0c0.8,0.8,2,0.8,2.8,0l18-18c0.8-0.8,0.8-2,0-2.8l0,0
				C222,79.2,220.8,79.2,220,79.9z"/>
		</g>
		<g>
			<path fill="#F5F2F2" d="M252,301.1l-16.4,16.4c-0.7,0.7-0.7,1.8,0,2.5h0c0.7,0.7,1.8,0.7,2.5,0l16.4-16.4c0.7-0.7,0.7-1.8,0-2.5
				l0,0C253.8,300.4,252.7,300.4,252,301.1z"/>
		</g>
	</g>
</g>
<g>
	<g>
		<path fill="#F5F2F2" d="M165.8,179.8h-75v-75h75V179.8z M99.8,170.8h57v-57h-57V170.8z"/>
	</g>
</g>
<g>
	<g>
		<path fill="#F5F2F2" d="M329.2,567.2h-75v-75h75V567.2z M263.2,558.2h57v-57h-57V558.2z"/>
	</g>
</g>
<g>
	<g>
		<path fill="#F5F2F2" d="M22.2,654.5l-82.6-82.6l82.6-82.6l82.6,82.6L22.2,654.5z M-36,571.9l58.2,58.2l58.2-58.2l-58.2-58.2
			L-36,571.9z"/>
	</g>
</g>
</svg>
