<svg xmlns="http://www.w3.org/2000/svg" width="192" height="38" fill="#b6bdd3"><path d="M22.915 15.867h1.082l3.086-3.086.15-1.3c-5.743-5.07-14.507-4.522-19.576 1.22-1.41 1.594-2.43 3.492-2.987 5.547a1.67 1.67 0 0 1 1.082-.064l6.17-1.018s.313-.52.477-.488a7.7 7.7 0 0 1 10.535-.801h-.02z"/><path d="M31.478 18.24a13.89 13.89 0 0 0-4.189-6.755l-4.33 4.33a7.7 7.7 0 0 1 2.826 6.107v.77c2.13 0 3.855 1.726 3.855 3.855S27.913 30.4 25.784 30.4h-7.7l-.77.78v4.624l.77.77h7.7a10.03 10.03 0 0 0 5.694-18.334z"/><path d="M10.355 36.524h7.7v-6.17h-7.7a3.84 3.84 0 0 1-1.592-.347l-1.082.337-3.107 3.085-.27 1.083a9.95 9.95 0 0 0 6.052 2.014z"/><path d="M10.355 16.506C4.817 16.538.357 21.054.39 26.592a10.02 10.02 0 0 0 3.914 7.886l4.47-4.47c-1.94-.876-2.802-3.16-1.926-5.1s3.16-2.802 5.1-1.926c.854.386 1.54 1.072 1.926 1.926l4.47-4.47c-1.9-2.49-4.858-3.944-7.99-3.93z"/><path fill-rule="evenodd" d="M49.267 29.28a9.86 9.86 0 0 0 7.145 2.934 9.22 9.22 0 0 0 6.962-2.823c1.63-1.718 2.487-4.025 2.372-6.388a8.96 8.96 0 0 0-.109-1.69h-9.193v2.77h6.497c-.113 1.253-.633 2.438-1.483 3.367-2.853 2.713-7.347 2.66-10.134-.12-1.353-1.342-2.107-3.173-2.1-5.078a7.08 7.08 0 0 1 2.09-5.142 6.87 6.87 0 0 1 5.088-2.165c1.835-.026 3.608.673 4.927 1.95l1.926-1.96a9.57 9.57 0 0 0-6.853-2.762 9.86 9.86 0 0 0-7.145 2.987 9.54 9.54 0 0 0-2.998 7.06 9.52 9.52 0 0 0 2.998 7.06zm19.346 1.093a6.63 6.63 0 0 0 9.171 0h-.01c1.244-1.202 1.928-2.87 1.884-4.6a6.18 6.18 0 0 0-1.873-4.601 6.64 6.64 0 0 0-9.171 0 6.18 6.18 0 0 0-1.873 4.601 6.17 6.17 0 0 0 1.873 4.601zm2.024-1.807c1.323 1.415 3.544 1.487 4.96.162.055-.053.11-.107.162-.162a3.86 3.86 0 0 0 1.083-2.794c.032-1.042-.358-2.054-1.083-2.804-1.362-1.42-3.616-1.468-5.037-.107a2.55 2.55 0 0 0-.107.107c-.725.75-1.114 1.762-1.082 2.804-.028 1.04.367 2.048 1.093 2.794h.013zm12.072 1.807a6.63 6.63 0 0 0 9.171 0c1.242-1.204 1.922-2.872 1.873-4.6a6.18 6.18 0 0 0-1.873-4.601 6.63 6.63 0 0 0-9.171 0 6.18 6.18 0 0 0-1.873 4.601 6.17 6.17 0 0 0 1.873 4.601zm2.026-1.807c1.323 1.415 3.544 1.487 4.96.162h0 0 0 0 0c.055-.053.11-.106.162-.162a3.86 3.86 0 0 0 1.082-2.794c.032-1.042-.358-2.054-1.082-2.804-1.362-1.42-3.616-1.468-5.035-.107a2.55 2.55 0 0 0-.107.107c-.724.75-1.114 1.762-1.082 2.804-.028 1.04.367 2.048 1.093 2.794h.01zm12.807 8.28a5.68 5.68 0 0 0 3.606 1.149c1.636.058 3.224-.548 4.407-1.68 1.242-1.37 1.864-3.192 1.72-5.035v-11.53H104.6v1.03h-.098a4 4 0 0 0-1.408-1.029c-.622-.292-1.304-.445-1.993-.443-1.645-.004-3.215.684-4.33 1.894-1.212 1.208-1.882 2.858-1.852 4.57-.028 1.703.64 3.34 1.852 4.537a5.88 5.88 0 0 0 4.329 1.884c1.296.073 2.55-.47 3.39-1.462h.098v.93a3.96 3.96 0 0 1-.9 2.815 3.25 3.25 0 0 1-2.523.974c-.735.02-1.453-.222-2.024-.682-.535-.428-.955-.982-1.223-1.613l-2.468 1.03c.458 1.055 1.183 1.973 2.1 2.664zm3.802-7.166a3.15 3.15 0 0 0 2.446-1.082c.667-.765 1.02-1.756.985-2.772a4.09 4.09 0 0 0-.985-2.825c-.613-.707-1.51-1.104-2.446-1.082a3.35 3.35 0 0 0-2.534 1.082 3.95 3.95 0 0 0-1.082 2.804 3.88 3.88 0 0 0 1.082 2.772c.646.714 1.57 1.117 2.534 1.104zm10.708 2.144V12.9h-2.826v18.924h2.826zm7.752.4c-1.71.045-3.363-.627-4.558-1.852a6.27 6.27 0 0 1-1.831-4.59 6.36 6.36 0 0 1 1.765-4.635c1.125-1.185 2.697-1.84 4.33-1.81.743-.008 1.478.136 2.165.422.618.25 1.18.618 1.655 1.082.41.394.772.833 1.083 1.31a7.98 7.98 0 0 1 .639 1.266l.292.737-8.66 3.563a3.25 3.25 0 0 0 3.118 1.95c1.297.004 2.5-.675 3.172-1.786l2.165 1.462c-.552.79-1.26 1.462-2.08 1.97a5.9 5.9 0 0 1-3.256.908zm2.143-9.03l-5.76 2.393a3.43 3.43 0 0 1 1.05-2.727c.6-.637 1.447-1.006 2.327-1.03.52-.006 1.03.124 1.483.38.405.215.722.563.9.984z"/><path d="M140.146 32.215a8.92 8.92 0 0 1-9.073-8.766l.002-.36c-.115-4.927 3.786-9 8.7-9.126l.36-.002a8.08 8.08 0 0 1 6.42 2.857l-1.56 1.515a5.89 5.89 0 0 0-4.85-2.22 6.62 6.62 0 0 0-4.818 1.926 6.77 6.77 0 0 0-1.961 5.046 6.77 6.77 0 0 0 1.96 5.046 6.61 6.61 0 0 0 4.818 1.926c2.096.023 4.1-.9 5.412-2.534l1.56 1.56a8.52 8.52 0 0 1-2.998 2.284 9.13 9.13 0 0 1-3.985.848zm11.172-.4h-2.242V14.34h2.242v17.486z"/><path fill-rule="evenodd" d="M163.814 21.3a6.27 6.27 0 0 0-8.835 0 6.33 6.33 0 0 0-1.732 4.547 6.34 6.34 0 0 0 1.732 4.547 6.27 6.27 0 0 0 8.835 0c1.16-1.225 1.784-2.862 1.732-4.547.052-1.685-.573-3.322-1.732-4.547zm-1.826 7.835a3.78 3.78 0 0 1-5.342-.147l.01-.01c-.792-.844-1.214-1.97-1.17-3.128-.05-1.16.368-2.29 1.16-3.14l.147-.147a3.78 3.78 0 0 1 5.342.147c.793.848 1.2 1.98 1.16 3.14a4.34 4.34 0 0 1-1.159 3.139l-.147.147z"/><path d="M177.963 31.825h-2.165V30.17h-.064c-.386.63-.93 1.144-1.58 1.494-.674.4-1.44.597-2.22.595a4.21 4.21 0 0 1-3.398-1.364 5.42 5.42 0 0 1-1.16-3.659v-7.362h2.242v6.95c0 2.23.985 3.345 2.956 3.345a2.75 2.75 0 0 0 2.273-1.082c.582-.735.89-1.65.878-2.587v-6.627h2.242l-.002 11.952z"/><path fill-rule="evenodd" d="M181.568 30.385a5.26 5.26 0 0 0 4.006 1.831c.846.01 1.68-.192 2.425-.584a4.13 4.13 0 0 0 1.624-1.462h.098v1.656h2.165V14.34h-2.242v5.532l.098 1.656h-.098c-.4-.624-.96-1.13-1.624-1.462a5.08 5.08 0 0 0-2.446-.584 5.27 5.27 0 0 0-4.006 1.83c-1.123 1.24-1.724 2.864-1.68 4.537-.045 1.673.556 3.297 1.68 4.537zm7.07-1.385a3.57 3.57 0 0 1-2.695 1.17c-1.036.015-2.027-.42-2.717-1.195-.763-.86-1.153-2-1.083-3.14-.07-1.148.32-2.278 1.083-3.14l.243-.243c1.496-1.362 3.8-1.253 5.17.243a4.39 4.39 0 0 1 1.083 3.152c.068 1.153-.322 2.284-1.083 3.152z"/></svg>